<svg xmlns="http://www.w3.org/2000/svg" width="32" height="32" viewBox="0 0 32 32" fill="none">
  <rect width="32" height="32" rx="6" fill="#646CFF"/>
  <path d="M16.024 6.52C16.8787 6.52 17.588 7.22933 17.588 8.084V15.4373H24.9413C25.796 15.4373 26.5053 16.1467 26.5053 17.0013C26.5053 17.856 25.796 18.5653 24.9413 18.5653H17.588V25.9187C17.588 26.7733 16.8787 27.4827 16.024 27.4827C15.1693 27.4827 14.46 26.7733 14.46 25.9187V18.5653H7.10667C6.252 18.5653 5.54267 17.856 5.54267 17.0013C5.54267 16.1467 6.252 15.4373 7.10667 15.4373H14.46V8.084C14.46 7.22933 15.1693 6.52 16.024 6.52Z" fill="white"/>
</svg> 